<?xml version="1.0" encoding="utf-8"?>
<!-- Generator: Adobe Illustrator 24.0.2, SVG Export Plug-In . SVG Version: 6.00 Build 0)  -->
<svg version="1.1" id="Calque_1" xmlns="http://www.w3.org/2000/svg" xmlns:xlink="http://www.w3.org/1999/xlink" x="0px" y="0px"
	 viewBox="0 0 425.91 212.84" style="enable-background:new 0 0 425.91 212.84;" xml:space="preserve">
<style type="text/css">
	.st0{fill:#571C15;}
	.st1{fill:#561F17;}
</style>
<g>
	<path class="st0" d="M258.31,30.07c-10.1,3.39-16.44,10.63-20.6,19.97c-2.52,5.66-3.93,11.64-4.22,17.85
		c-0.08,1.73-0.76,2.71-2.62,2.61c-0.76-0.04-1.52-0.04-2.28,0c-2.24,0.13-3.2-0.87-3.23-3.15c-0.08-6.18,1.11-12.14,3.65-17.69
		c5.93-12.92,15.96-21.05,29.82-24.33c2-0.47,1.78-1.33,1.26-2.88c-1.21-3.58-0.13-6.62,2.61-8.1c3.08-1.67,7.15-1.02,9.23,1.46
		c1.67,1.99,1.42,4.3,0.82,6.5c-0.51,1.87-0.3,2.66,1.82,3.08c16.06,3.18,28.96,16.92,32.03,32.74c0.58,2.98,1.16,5.95,1.02,9.02
		c-0.14,2.98-0.41,3.33-3.43,3.34c-15.9,0.01-31.79,0.01-47.69,0.01c-4.74,0-9.47,0.01-14.21,0c-3.81-0.01-3.83-0.07-3.27-3.88
		c1.05-7.12,2.69-14.06,6.14-20.46c3.03-5.61,6.75-10.66,11.78-14.66C257.47,31.09,257.87,30.55,258.31,30.07z"/>
	<path class="st1" d="M374.12,128.36c0-8.54-0.01-17.08,0.01-25.61c0.01-3.15,0.57-3.79,3.65-3.8c12.26-0.03,24.52-0.03,36.78,0
		c3.21,0.01,4.65,1.69,4.12,4.86c-0.23,1.34-0.49,2.67-0.37,4.01c0.2,2.43-0.89,3.32-3.26,3.3c-8.03-0.06-16.06-0.02-24.09-0.01
		c-3.61,0.01-3.61,0.02-3.62,3.69c-0.01,1.86-0.04,3.72,0.05,5.58c0.08,1.61,0.81,2.26,2.64,2.13c7.25-0.52,14.53-0.19,21.79-0.19
		c1.87,0,3,0.91,2.93,2.98c-0.07,2.03-0.07,4.06,0,6.09c0.07,2.06-1.01,3.01-2.89,3.02c-7.1,0.04-14.2,0.06-21.3-0.05
		c-2.57-0.04-3.71,0.7-3.45,3.27c0.19,1.86,0.28,3.71,0.21,5.55c-0.09,2.19,0.8,2.99,2.98,2.97c7.95-0.07,15.89-0.03,23.84-0.02
		c4.55,0,4.7,0.12,4.66,4.74c-0.06,7.91,0.98,6.89-6.82,6.92c-11.5,0.05-23,0.02-34.49,0c-3.14,0-3.33-0.19-3.34-3.31
		C374.1,145.77,374.12,137.06,374.12,128.36z"/>
	<path class="st1" d="M322.34,128.56c0-8.71-0.02-17.42,0.01-26.13c0.01-2.94,0.46-3.36,3.43-3.03c1.81,0.2,3.5-0.48,5.28-0.48
		c3.73-0.01,4.47,0.67,4.47,4.33c0.01,12.94,0,25.87,0.01,38.81c0,3.74,0.33,4.05,4.08,4.06c7.19,0.01,14.38-0.01,21.56,0.01
		c3.18,0.01,3.79,0.69,3.79,3.93c0,2.01-0.66,3.93-0.32,6.02c0.29,1.77-1.45,1.7-2.73,1.7c-8.37,0.01-16.74,0.01-25.12,0.01
		c-3.89,0-7.78-0.07-11.67,0.02c-2.09,0.05-2.83-0.83-2.82-2.87C322.38,146.15,322.34,137.36,322.34,128.56z"/>
	<path class="st1" d="M5.59,128.22c0-8.54-0.01-17.08,0.01-25.62c0.01-3.23,0.45-3.64,3.69-3.68c2.11-0.02,4.24,0.11,6.34-0.03
		c2.48-0.17,3.2,0.93,3.19,3.28c-0.07,13.02-0.04,26.04-0.03,39.06c0,4.36,0.01,4.37,4.32,4.37c7.02,0.01,14.04-0.01,21.06,0.01
		c2.95,0.01,4.44,1.6,3.92,4.45c-0.29,1.6-0.32,3.18-0.37,4.78c-0.08,2.73-0.83,3.25-3.7,2.81c-3.41-0.52-6.83-1.22-10.25-1.32
		c-8.26-0.25-16.53-0.31-24.71,1.33c-2.72,0.55-3.44-0.16-3.44-3.07C5.58,145.81,5.59,137.02,5.59,128.22z"/>
	<path class="st1" d="M200.01,190.75c0-4.48-0.03-8.96,0.01-13.45c0.03-2.95,0.82-3.74,3.79-3.76c6.26-0.03,12.52-0.03,18.78,0
		c2.95,0.02,3.3,0.45,3.3,3.46c-0.01,3.01-0.47,3.57-3.24,3.61c-3.72,0.05-7.44,0-11.16,0.03c-3.1,0.02-3.36,0.3-3.35,3.3
		c0.01,2.88,0.37,3.24,3.49,3.28c3.21,0.03,6.43,0.01,9.64,0.02c1.25,0,2.55,0.11,2.52,1.76c-0.04,1.72,0.89,3.9-1.59,4.78
		c-2.54,0.91-5.16,0.61-7.77,0.35c-0.67-0.07-1.33-0.26-2-0.28c-3.88-0.16-5.69,2.55-4.14,6.1c0.5,1.14,1.5,0.95,2.39,0.96
		c4.06,0.03,8.12,0.09,12.18,0c2.14-0.05,3.42,0.65,3.52,2.93c0.12,2.93-0.75,4.14-3.35,4.16c-6.6,0.07-13.19,0.02-19.79,0.02
		c-2.22,0-3.22-1.16-3.21-3.32C200.02,200.05,200.02,195.4,200.01,190.75z"/>
	<path class="st1" d="M392.9,190.82c0-4.56-0.02-9.12,0.01-13.68c0.02-2.84,0.62-3.55,3.35-3.57c6.42-0.06,12.84-0.06,19.26,0
		c2.48,0.02,3.3,1.11,3.26,3.76c-0.04,2.26-0.98,3.39-3.4,3.33c-4.05-0.1-8.11,0.05-12.16-0.04c-2.17-0.05-2.77,0.99-2.72,2.95
		c0.05,1.93,0.18,3.64,2.72,3.64c3.46,0.01,6.93,0.04,10.39,0.02c1.55-0.01,2.98,0.14,3.08,2.11c0.1,1.86,0.31,3.83-2.09,4.57
		c-2.4,0.74-4.84,0.46-7.27,0.24c-0.84-0.08-1.67-0.28-2.5-0.29c-3.94-0.03-5.53,2.29-4.2,5.98c0.43,1.2,1.4,1.07,2.3,1.08
		c4.22,0.03,8.45,0.02,12.67,0.03c1.55,0,3.22-0.11,3.16,2.2c-0.05,1.95,0.58,4.19-2.56,4.56c-1.25,0.15-2.51,0.47-3.75,0.31
		c-5.04-0.64-10.06-0.53-15.12-0.04c-3.83,0.37-4.42-0.41-4.43-4.23C392.89,199.44,392.9,195.13,392.9,190.82z"/>
	<path class="st1" d="M114.74,186.09c0-3.04-0.05-6.09,0.01-9.13c0.05-2.65,0.73-3.21,3.35-3.09c0.49,0.02,0.99-0.09,1.48-0.18
		c1.8-0.35,2.54,0.29,2.79,2.2c0.94,7,0.16,13.98-0.08,20.96c-0.09,2.51-1.19,4.77-2.81,6.65c-5.96,6.88-18.12,6.63-23.72-0.49
		c-1.94-2.46-2.7-5.49-2.79-8.52c-0.19-5.91-0.01-11.84-0.08-17.76c-0.03-2.36,1.2-3.12,3.29-3.18c2.89-0.08,4.01,0.72,4.37,2.92
		c0.36,2.18,0.37,4.29,0.07,6.51c-0.6,4.46,0.3,8.92,0.54,13.38c0.16,3.06,3.32,4.75,7.63,4.58c3.21-0.13,5.76-2.38,5.89-5.46
		c0.13-3.12,0.03-6.26,0.03-9.39C114.71,186.09,114.72,186.09,114.74,186.09z"/>
	<path class="st1" d="M73.64,173.54c4.11-0.17,7.64,0.64,10.83,2.84c1.33,0.92,1.5,1.78,0.69,3.16c-2.2,3.75-2.71,3.96-6.55,2.07
		c-1.76-0.86-3.52-1.64-5.55-1.46c-1.61,0.14-3.02,0.61-3.43,2.41c-0.44,1.94,0.83,2.75,2.35,3.32c3.15,1.18,6.46,1.86,9.55,3.26
		c3.45,1.57,5.66,3.86,5.77,7.81c0.12,4.4-1.88,7.63-5.58,9.78c-2.85,1.66-5.91,2.07-9.25,1.4c-3.42-0.68-6.75-1.52-9.74-3.32
		c-1.46-0.88-2.45-2.03-1.05-3.93c2.35-3.2,3.27-3.68,5.35-2.19c3.16,2.26,6.51,3.55,10.39,2.05c1.02-0.4,2.08-0.91,2.17-2.22
		c0.09-1.29-0.88-1.96-1.8-2.55c-1.8-1.16-3.88-1.63-5.94-2.07c-2.27-0.49-4.3-1.49-6.28-2.61c-2.77-1.56-4.02-4.26-3.98-7.19
		c0.06-3.86,1.64-7.17,5.24-9.21C69.07,173.64,71.45,173.37,73.64,173.54z"/>
	<path class="st1" d="M306.79,208.03c-3.86,0.39-7.61-0.84-11.05-2.96c-1.24-0.76-3.52-1.33-1.99-3.68
		c2.43-3.76,3.56-4.18,6.09-2.37c2.73,1.95,5.76,2.79,9.07,2.21c1.32-0.23,2.61-0.75,2.75-2.51c0.13-1.63-0.74-2.47-2.05-3.13
		c-1.83-0.92-3.84-1.23-5.78-1.81c-3.13-0.94-6.39-1.71-8.37-4.74c-3.6-5.51-0.56-13.32,5.79-15.04c4.98-1.35,9.69-0.35,14.26,1.55
		c1.36,0.57,3.19,1.31,2.25,3.5c-1.26,2.95-3,3.86-5.41,2.96c-1.58-0.59-3.18-1.11-4.77-1.64c-0.99-0.33-2.02-0.35-3.01-0.09
		c-1.27,0.34-2.48,1.04-2.78,2.34c-0.3,1.29,0.78,2.14,1.76,2.82c1.55,1.1,3.36,1.48,5.19,1.83c5.1,0.97,9.29,3.06,10.6,8.69
		c1.42,6.09-3.61,11.66-9.22,12.04C309.08,208.09,308.07,208.03,306.79,208.03z"/>
	<path class="st1" d="M128.43,191.17c-0.16-6.45,4.96-15.92,13.41-17.76c6.24-1.36,11.64,0.55,16.64,4.12
		c0.2,0.14,0.48,0.38,0.48,0.57c-0.09,2.11-1.68,3.3-2.97,4.66c-0.96,1.01-1.99,1.18-3.11,0.21c-3.57-3.07-7.58-3.18-11.54-1.18
		c-3.69,1.87-5.37,6.14-4.72,10.64c0.58,4.02,3.98,7.75,8.15,8.77c2.95,0.72,5.47-0.62,7.88-2.02c1.68-0.98,3.09-1.07,4.57,0.33
		c2.23,2.13,2.25,3.8-0.26,5.57c-8.73,6.13-21.16,3-26.08-4.57C129.06,197.74,128.33,194.64,128.43,191.17z"/>
	<path class="st1" d="M362.95,190.25c0-4.48,0.05-8.97-0.02-13.45c-0.03-1.8,0.59-3.04,2.45-3.17c1.98-0.14,4.12-0.44,5.22,1.95
		c0.44,0.96,0.47,1.96,0.46,2.98c-0.04,5.91,0.09,11.81-0.44,17.72c-0.33,3.66,0.79,4.48,4.56,4.69c2.81,0.16,5.55-0.46,8.33-0.51
		c3.26-0.05,4.2,0.7,4.3,3.25c0.11,2.94-0.95,4.42-4.05,4.11c-5.59-0.55-11.11,0.01-16.66,0.21c-3.08,0.11-4.08-0.94-4.12-4.07
		C362.92,199.38,362.95,194.82,362.95,190.25z"/>
	<path class="st1" d="M43.14,199.35c0,2.02,0.05,4.05-0.02,6.07c-0.07,2.01-2.21,3.4-3.86,2.25c-1.4-0.97-2.3-0.61-3.59-0.05
		c-3.72,1.61-7.82-0.93-8.16-5.18c-0.25-3.19-0.06-6.41-0.06-9.61c0-1.74,1.11-2.03,2.54-2.03c1.47-0.01,2.48,0.4,2.48,2.11
		c-0.01,1.94,0,3.88,0.04,5.82c0.06,3.09,1.18,4.77,3.09,4.66c1.75-0.1,3.22-2.61,2.76-5.24c-0.28-1.61-0.19-3.19-0.27-4.78
		c-0.1-1.81,0.7-2.56,2.54-2.59c1.85-0.03,2.62,0.65,2.54,2.51C43.07,195.3,43.14,197.33,43.14,199.35z"/>
	<path class="st1" d="M212.84,171.49c-0.56-0.1-1.41,0.21-1.71-0.58c-0.25-0.68,0.24-1.26,0.67-1.8c0.42-0.52,0.79-1.09,1.18-1.63
		c2.95-4.14,2.86-4.31,8.18-1.63c0.59,0.3,1.06,0.51,0.55,1.29C220.38,169.13,215.48,171.58,212.84,171.49z"/>
	<path class="st1" d="M406.1,171.54c-0.93-0.19-1.98,0.31-2.42-0.67c-0.37-0.82,0.63-1.28,0.93-1.95c0.28-0.61,0.72-1.14,1.09-1.7
		c2.38-3.58,4.11-3.95,7.73-1.69c0.84,0.52,1.43,1.1,0.44,1.92C411.56,169.41,409.23,171.4,406.1,171.54z"/>
	<path class="st0" d="M414.93,78.13c-8.12-0.02-16.24-0.02-24.36,0c-1.38,0-2.8-0.01-3.94-0.73c-2.71-1.71-5.65-2.49-8.78-2.98
		c-1.8-0.28-3.32-1.21-3.1-3.57c0.63-6.73,0.66-13.47-0.03-20.2c-0.17-1.69,0.33-3.02,1.95-3.73c1.46-0.65,2.95-1.25,4.44-1.83
		c5.45-2.1,9.97-5.34,12.56-10.74c4.17-8.66,3.08-17.4,0-26.05c-0.85-2.39-2.64-3.87-5.61-3.83c-10.49,0.13-20.98,0.04-31.47,0.06
		c-4.06,0.01-5.61,0.91-6.6,4.86c-1.12,4.47-2.41,8.9-2.33,13.65c0.2,11.16,7.36,20.68,18.2,23.21c2.67,0.62,3.29,1.77,3.23,4.28
		c-0.14,6.26-0.2,12.53,0.1,18.77c0.19,3.94,0.15,3.58-3.23,5.14c-10.08,4.64-20.7,3.64-31.24,3.68c-5.25,0.02-10.49,0-15.74,0
		c-0.68,0-1.35-0.04-2.03-0.02c-1.21,0.03-2.11-0.59-2.1-1.73c0.02-3.21-1.97-3.36-4.41-3.35c-29.36,0.04-58.71,0.02-88.07,0.02
		c-0.42,0-0.85,0.02-1.27,0.01c-1.66-0.06-2.86,0.55-2.98,2.34c-0.18,2.51-1.7,2.78-3.81,2.77c-14.21-0.07-28.43-0.08-42.64-0.01
		c-4.63,0.02-9.29-0.46-13.91,0.41c-0.43,0.08-1.05,0.15-1.19-0.81c5.12-1.88,9.91-4.42,14.13-8.02
		c9.15-7.8,14.24-17.57,14.55-29.65c0.12-4.61-0.46-5.1-5.06-5.1c-24.11,0-48.22,0-72.33-0.01c-1.1,0-2.21,0.04-3.29-0.12
		c-3.85-0.57-6.12,1.65-5.46,5.57c0.79,4.73,1.57,9.49,3.42,13.96c2.52,6.09,6,11.44,11.3,15.58c4.38,3.42,9.27,5.74,14.44,8.16
		c-0.91,0-1.83,0-2.74,0c-11.84,0-23.69-0.02-35.53,0.01c-9.3,0.02-18.61,0.06-27.91,0.17c-1.8,0.02-1.79-1.09-1.53-2.14
		c1.05-4.22,0.13-8.32-0.4-12.49c-0.52-4.09-0.77-8.21,1.62-12.03c5.45-8.72,6.04-18.05,2.99-27.72c-0.96-3.05-2.61-4.16-5.84-4.17
		c-7.36-0.02-14.72-0.01-22.08-0.01c-4.31,0-6.74,2.04-7.94,6.25c-1.35,4.76-1.12,9.53-0.26,14.28c0.81,4.49,2.09,8.81,4.76,12.68
		c1.79,2.6,1.97,5.68,1.43,8.77c-0.7,4.07-1.69,8.11-1.27,12.28c0.41,4.1,0.44,4.1-3.69,4.1c-6.94,0.01-13.87-0.02-20.81,0.03
		c-2.81,0.02-3.42,0.69-3.45,3.47c-0.03,2.11,0.03,4.23,0,6.34c-0.02,1.58,0.66,2.36,2.28,2.32c1.01-0.03,2.03,0.01,3.05,0.01
		c49.41,0,98.81,0,148.22,0c4.08,0,4.31,0.23,4.31,4.32c0.01,19.96,0,39.93,0.01,59.89c0,3.22,1.02,4.03,4.2,3.49
		c1.76-0.3,3.53-0.3,5.3,0c2.44,0.42,3.51-0.37,3.67-2.77c0.06-0.93,0.03-1.86,0.03-2.79c-0.18-19.95,0.35-39.91-0.26-59.86
		c-0.04-1.3,0.49-2.31,2.07-2.26c0.84,0.03,1.69-0.01,2.54-0.01c77.15,0,154.31,0,231.46-0.01c0.93,0,1.86,0.01,2.79,0
		c3.35-0.03,3.48-0.16,3.51-3.4c0.02-1.61,0.01-3.21,0-4.82C418.75,78.36,418.56,78.13,414.93,78.13z M57.69,35.93
		c-4.37-0.81-8.76-0.37-13.14-0.42c-4.33-0.05-5.37,1.47-4.11,5.69c0.51,1.69,1.06,3.38,1.74,5.01c0.47,1.12,0.4,2.01-0.65,2.62
		c-1.2,0.7-2.1,0.08-2.78-0.92c-1.92-2.82-2.33-6.1-2.68-9.37c-0.16-1.52-0.24-2.8-2.28-2.97c-1.23-0.11-1.44-1.37-1.27-2.41
		c0.42-2.48,0.91-4.96,1.49-7.4c0.38-1.62,1.77-1.91,3.18-1.93c3.47-0.03,6.93-0.01,10.4-0.01c0,0,0-0.01,0-0.01
		c3.21,0,6.42-0.01,9.64,0.01c0.75,0,1.51-0.06,2.2,0.41c1.53,1.05,3.26,8.98,2.18,10.52C60.66,36.09,59.11,36.19,57.69,35.93z"/>
	<path class="st1" d="M304.98,129.05c-2.03-1.29-2.52-2.05-0.53-3.97c3.35-3.25,5.13-7.47,4.46-12.13
		c-1.03-7.14-5.53-11.55-12.48-12.92c-5.61-1.1-11.39-0.98-17.12-1.15c-4.4-0.13-8.75,0.99-13.14,0.46
		c-3.43-0.42-4.21,0.17-4.22,3.66c-0.02,8.54-0.01,17.08-0.01,25.62c0,8.29,0,16.57,0,24.86c0,0.17,0,0.34,0,0.51
		c0.04,3.54,0.27,3.8,3.73,3.81c7.61,0.01,15.22,0.02,22.83,0c2.95-0.01,5.9,0.21,8.83-0.5c5.21-1.26,10.26-3.04,12.92-8.02
		C313.98,142.29,313.11,134.22,304.98,129.05z M275.16,111.98c0.16-1.32,1.58-1.5,2.64-1.33c4.27,0.7,8.57,0.27,12.84,0.51
		c2.29,0.13,4.29,2.05,4.71,4.26c0.56,2.93-0.46,5.14-2.91,6.29c-3.11,1.46-6.43,0.98-8.99,1.05c-2.47,0-4.25-0.08-6.01,0.02
		c-1.87,0.11-2.73-0.92-2.73-2.53C274.71,117.5,274.83,114.72,275.16,111.98z M298.94,141.51c-0.25,2.32-2.03,3.37-3.86,3.88
		c-3.64,1.01-7.37,1.84-11.19,0.87c-1.96-0.5-3.82,0.43-5.77,0.39c-2.1-0.04-3.11-0.83-3.02-3.03c0.1-2.53,0.05-5.06,0.03-7.59
		c-0.01-1.32,0.5-2.09,1.92-2.06c3.54,0.09,7.07-0.14,10.42-0.64c3.15,0.41,6.18,0.34,8.89,2.07
		C298.73,136.9,299.21,139.01,298.94,141.51z"/>
	<path class="st1" d="M252.27,155.27c-0.58-1.49-1.27-2.94-1.89-4.42c-6.95-16.38-13.9-32.75-20.82-49.14
		c-0.82-1.94-1.98-3.03-4.21-2.82c-1.34,0.13-2.71,0.09-4.05-0.04c-4.42-0.43-5.37,0.2-7.05,4.23c-3.96,9.49-7.99,18.95-12.01,28.42
		c-3.39,7.99-6.79,15.99-10.23,23.96c-0.73,1.7-0.26,2.34,1.52,2.33c2.79-0.03,5.59-0.07,8.37,0.02c1.78,0.06,2.91-0.66,3.55-2.25
		c1.06-2.66,2.24-5.29,3.12-8.01c0.78-2.4,2.38-3.31,4.63-2.86c2.61,0.52,5.22,0.32,8.71,0.46c2.43,0.4,5.67-0.59,8.97-0.55
		c3.02,0.03,4.29,1.01,5.16,3.81c0.67,2.17,1.39,4.33,2.19,6.46c0.93,2.46,3.02,3.77,5.6,3.34c2.11-0.35,4.14-0.48,6.27-0.11
		C252.23,158.47,253.06,157.3,252.27,155.27z M225.92,133.43c-0.76,0.01-1.52,0-2.65,0c-1.89,0.42-4.1-0.54-6.4-0.13
		c-1.63,0.29-1.76-0.89-1.27-2.13c1.3-3.28,2.51-6.61,3.96-9.82c0.83-1.85,1.01-4.06,2.72-5.48c1.25,1.62,1.54,3.65,2.39,5.45
		c1.26,2.66,2.5,5.34,3.73,8.01C229.92,132.63,229.46,133.38,225.92,133.43z"/>
	<path class="st1" d="M113.25,154.9c-3.22-7.6-6.48-15.18-9.7-22.78c-4.38-10.31-8.76-20.62-13.09-30.95
		c-0.68-1.62-1.67-2.38-3.46-2.27c-1.6,0.1-3.22,0.08-4.81-0.12c-3.9-0.49-5.01,0.19-6.54,3.85c-3.61,8.62-7.31,17.21-10.97,25.82
		c-3.75,8.84-7.52,17.67-11.23,26.53c-0.99,2.35-0.67,2.76,1.95,2.81c2.37,0.04,4.74-0.1,7.1,0.04c2.19,0.13,3.44-0.91,4.37-2.74
		c1.2-2.35,1.84-4.88,2.74-7.34c0.73-2.02,1.96-3.23,4.35-2.98c5.12,0.55,10.27,0.68,15.38-0.08c4.83-0.71,6.51,0.25,8.19,4.92
		c0.62,1.74,1.25,3.49,2.04,5.16c1.25,2.64,3.76,3.43,6.33,3.34c1.92-0.07,3.82-0.51,5.78,0.04
		C113.65,158.24,114.22,157.18,113.25,154.9z M88.16,133.29c-3.52,0.16-7.06,0.07-10.59,0.01c-1.06-0.02-1.56-0.75-1.17-1.74
		c2.11-5.28,4.27-10.53,6.41-15.8c2.52,5.06,4.63,9.9,7.02,14.61C90.82,132.3,89.81,133.22,88.16,133.29z"/>
	<path class="st1" d="M193.21,205.19c-1.47-2.26-2.89-4.57-4.55-6.69c-1.58-2.02-1.25-3.23,0.89-4.57c3.28-2.05,5.07-7.08,4.2-10.93
		c-1.09-4.83-4.54-8.33-8.88-8.9c-5.37-0.7-10.78-0.64-16.18-0.56c-2.12,0.03-3.27,0.92-3.22,3.24c0.09,4.56,0.03,9.13,0.03,13.69
		c0,4.65-0.04,9.3,0.01,13.95c0.03,2.9,0.96,3.65,4.19,3.61c2.85-0.04,3.34-0.53,3.39-3.47c0.02-1.35,0-2.71,0.01-4.06
		c0.03-3.67,1.25-4.46,4.72-3.14c1.35,0.51,2.18,1.52,2.93,2.66c0.93,1.4,1.92,2.76,2.84,4.17c1.91,2.94,4.78,3.85,8.07,3.8
		C194.23,207.97,194.58,207.29,193.21,205.19z M182.15,189.88c-1.42,0.49-2.84,0.33-4.1,0.4c-4.96,0-4.96,0-4.95-4.91
		c0.01-4.43,0.3-4.73,4.77-4.72c1.42,0,2.84-0.1,4.26,0.39c2.17,0.74,3.7,1.74,3.7,4.41C185.83,188.11,184.33,189.13,182.15,189.88z
		"/>
	<path class="st1" d="M272.61,201.8c-1.85-2.17-1.99-3.3-0.22-5.49c0.58-0.72,1.13-1.47,1.59-2.26c0.46-0.81,0.32-1.62-0.34-2.32
		c-2.23-2.4-4.59-2.15-6.17,0.65c-0.44,0.77-0.68,1.97-1.86,1.76c-1.32-0.24-2.23-1.34-2.75-2.44c-0.58-1.25,0.74-1.68,1.56-2.18
		c2.86-1.73,4.26-4.22,4.1-7.72c0.08-1.22-0.11-2.51-0.78-3.76c-2.49-4.63-8.47-6.23-13.95-3.7c-4.3,1.99-6.28,6.9-4.32,11.58
		c0.93,2.23,0.68,3.48-1.34,4.84c-3.36,2.26-3.92,5.8-3.33,9.47c0.58,3.61,2.71,5.99,6.29,7.21c4.56,1.54,8.81,0.96,12.82-1.47
		c1.47-0.89,2.44-0.94,3.73,0.33c1.92,1.91,4.07,1.57,6.34-0.79C275.93,203.47,273.45,202.79,272.61,201.8z M258.59,201.57
		c-0.63,0.19-1.29,0.31-1.52,0.36c-2.49-0.02-4.46-1.61-4.64-3.62c-0.15-1.62,0.53-3,2.06-3.7c1.49-0.68,2.33,0.42,3.16,1.4
		c0.59,0.71,1.12,1.47,1.77,2.12C261.39,200.12,261.25,200.76,258.59,201.57z M258.65,186.15c-1.92-0.07-2.55-1.46-2.73-3.06
		c-0.19-1.73,1.47-3.93,2.93-3.85c1.65,0.09,2.89,0.86,3.02,2.32C261.91,184.11,260.33,186.21,258.65,186.15z"/>
	<path class="st1" d="M356.88,204.56c-0.67-1.64-1.36-3.27-2.06-4.89c-3.36-7.82-6.78-15.61-10.06-23.46
		c-1.14-2.74-3.31-2.62-5.65-2.71c-2.29-0.08-3.07,1.38-3.8,3.06c-0.9,2.09-1.78,4.19-2.67,6.28c-3.18,7.53-6.32,15.07-9.56,22.58
		c-0.8,1.86-0.13,2.44,1.61,2.61c3.9,0.37,5.51-0.51,6.7-4.16c0.79-2.43,2.12-3.64,4.79-3.47c2.53,0.17,5.08,0.17,7.6,0
		c2.64-0.18,4.05,0.94,4.85,3.39c1.1,3.37,2.51,4.27,5.98,4.25C357.7,208.02,358.07,207.46,356.88,204.56z M342.43,193.3
		c-0.08,0-0.17,0-0.25,0.01c-6.17,0.6-6.43,0.24-3.98-5.38c0.54-1.22,1.05-2.45,1.91-4.46c1.35,3.21,2.43,5.73,3.47,8.25
		C344.05,192.84,343.51,193.28,342.43,193.3z"/>
	<path class="st1" d="M23.86,196.38c-0.01,0-0.01,0-0.02,0c0-3.13-0.04-6.26,0.01-9.39c0.03-1.69-0.87-2.49-2.39-2.71
		c-1.6-0.23-2.55,0.59-2.97,2.1c-0.26,0.92-0.3,1.85-0.01,2.75c0.67,2.1-0.04,2.6-2.08,2.01c-6.37-1.85-10.33,0.67-10.7,7.28
		c-0.35,6.2,3.52,12,10.89,8.67c0.91-0.41,1.59-0.37,2.54,0.21c2.69,1.64,4.7,0.39,4.72-2.8C23.88,201.79,23.86,199.08,23.86,196.38
		z M14.34,203.45c-2.21-0.07-3.74-1.96-3.65-4.5c0.09-2.47,1.78-4.13,4.16-4.06c2.19,0.06,3.97,2.08,3.89,4.41
		C18.64,201.82,16.82,203.54,14.34,203.45z"/>
</g>
</svg>
